<svg width="19" height="23" viewBox="0 0 19 23" fill="none" xmlns="http://www.w3.org/2000/svg">
<path d="M4.35103 18.7006L12.4382 4.69323L12.5374 4.5213C12.9739 3.76534 13.9295 3.49999 14.6719 3.92861C15.4143 4.35723 15.6623 5.31748 15.2258 6.07345L6.98536 20.3464L6.95859 20.3942C6.08568 21.9062 4.17447 22.4369 2.68968 21.5796C1.20488 20.7224 0.708881 18.8019 1.5818 17.2899L1.60856 17.2421L9.53115 3.51974L9.76985 3.1063C11.0792 0.838402 13.946 0.0423509 16.1732 1.32822C18.4004 2.61409 19.1444 5.49484 17.835 7.76274L17.7203 7.96143L10.7684 20.3231" fill="white"/>
<path d="M4.35103 18.7006L12.4382 4.69323L12.5374 4.5213C12.9739 3.76534 13.9295 3.49999 14.6719 3.92861C15.4143 4.35723 15.6623 5.31748 15.2258 6.07345L6.98536 20.3464L6.95859 20.3942C6.08568 21.9062 4.17447 22.4369 2.68968 21.5796C1.20488 20.7224 0.708881 18.8019 1.5818 17.2899L1.60856 17.2421L9.53115 3.51974L9.76985 3.1063C11.0792 0.838402 13.946 0.0423509 16.1732 1.32822C18.4004 2.61409 19.1444 5.49484 17.835 7.76274L17.7203 7.96143L10.7684 20.3231" stroke="#222222" stroke-miterlimit="10" stroke-linecap="round"/>
</svg>
