<svg width="100%" height="100%" preserveAspectRatio="none" viewBox="0 0 290 549" fill="none" xmlns="http://www.w3.org/2000/svg">
<g opacity="0.5" filter="url(#filter0_f_157_781)">
<path d="M15 21C15 17.6863 17.6863 15 21 15H240.802C241.912 15 243.001 15.3081 243.946 15.8901L272.145 33.2428C273.919 34.3348 275 36.2692 275 38.3528V521.644C275 523.158 274.427 524.617 273.397 525.727L266.011 533.68C265.822 533.884 265.556 534 265.278 534H36.1879C34.5194 534 32.9264 533.305 31.7911 532.083L16.6032 515.727C15.5727 514.617 15 513.158 15 511.644V21Z" fill="#111111"/>
</g>
<defs>
<filter id="filter0_f_157_781" x="0" y="0" width="100%" height="100%" filterUnits="userSpaceOnUse" color-interpolation-filters="sRGB">
<feFlood flood-opacity="0" result="BackgroundImageFix"/>
<feBlend mode="normal" in="SourceGraphic" in2="BackgroundImageFix" result="shape"/>
<feGaussianBlur stdDeviation="7.5" result="effect1_foregroundBlur_157_781"/>
</filter>
</defs>
</svg>
