<svg width="109" height="69" viewBox="0 0 109 69" fill="none" xmlns="http://www.w3.org/2000/svg">
<path d="M0.633048 64.6604C0.445477 64.863 0.457711 65.1794 0.660373 65.367L3.96294 68.4236C4.1656 68.6112 4.48195 68.5989 4.66952 68.3963C4.85709 68.1936 4.84485 67.8773 4.64219 67.6897L1.70658 64.9727L4.42359 62.0371C4.61116 61.8344 4.59893 61.5181 4.39627 61.3305C4.19361 61.1429 3.87726 61.1551 3.68969 61.3578L0.633048 64.6604ZM1.01932 65.4996C1.72753 65.4722 2.43157 65.4438 3.13146 65.4145L3.08951 64.4153C2.39073 64.4447 1.68779 64.473 0.980678 64.5004L1.01932 65.4996ZM7.28115 65.2263C8.64789 65.1596 9.99817 65.089 11.3322 65.0146L11.2765 64.0162C9.94484 64.0905 8.59688 64.1609 7.23244 64.2275L7.28115 65.2263ZM15.2854 64.78C16.6906 64.6915 18.077 64.5986 19.4447 64.5014L19.3739 63.5039C18.0088 63.6009 16.6251 63.6936 15.2225 63.782L15.2854 64.78ZM23.5425 64.1931C24.8895 64.086 26.2175 63.9746 27.5269 63.859L27.4389 62.8629C26.1325 62.9782 24.8074 63.0894 23.4633 63.1963L23.5425 64.1931ZM31.5934 63.4808C32.9883 63.3442 34.3609 63.2028 35.7114 63.0565L35.6037 62.0623C34.2567 62.2082 32.8876 62.3493 31.496 62.4855L31.5934 63.4808ZM39.697 62.6034C41.069 62.4399 42.417 62.2711 43.7412 62.0974L43.6111 61.1059C42.2909 61.2791 40.9468 61.4473 39.5786 61.6104L39.697 62.6034ZM47.8382 61.5332C49.1778 61.3397 50.4916 61.1408 51.7799 60.9368L51.6235 59.9491C50.3398 60.1524 49.0305 60.3506 47.6952 60.5435L47.8382 61.5332ZM55.8654 60.2576C57.234 60.019 58.5716 59.7742 59.8789 59.5234L59.6905 58.5414C58.389 58.791 57.0568 59.0348 55.6936 59.2725L55.8654 60.2576ZM63.8184 58.7308C65.2078 58.4376 66.5598 58.1374 67.8752 57.8304L67.6479 56.8566C66.3397 57.1619 64.9946 57.4606 63.612 57.7523L63.8184 58.7308ZM71.7251 56.886C73.1203 56.5264 74.4701 56.1587 75.7755 55.7832L75.4991 54.8222C74.2029 55.195 72.8621 55.5603 71.4755 55.9177L71.7251 56.886ZM79.5827 54.6269C80.958 54.1857 82.2778 53.7352 83.5436 53.2761L83.2026 52.336C81.9492 52.7906 80.6412 53.2371 79.2772 53.6747L79.5827 54.6269ZM87.3215 51.8153C88.6347 51.2735 89.8798 50.7214 91.0587 50.16L90.6287 49.2571C89.4668 49.8105 88.2379 50.3555 86.9402 50.8909L87.3215 51.8153ZM94.7393 48.2585C95.9947 47.5532 97.1562 46.8354 98.227 46.1066L97.6644 45.2799C96.619 45.9913 95.482 46.6942 94.2495 47.3867L94.7393 48.2585ZM101.489 43.618C102.605 42.6568 103.578 41.6801 104.416 40.6909L103.653 40.0444C102.852 40.99 101.916 41.9301 100.837 42.8605L101.489 43.618ZM106.773 37.2469C107.46 35.9466 107.935 34.6338 108.21 33.3171L107.232 33.1124C106.976 34.333 106.535 35.5577 105.889 36.7795L106.773 37.2469ZM108.429 29.1259C108.291 27.7545 107.951 26.3972 107.432 25.064L106.5 25.4269C106.989 26.6834 107.306 27.9527 107.434 29.2265L108.429 29.1259ZM105.504 21.3675C104.77 20.2481 103.914 19.1528 102.949 18.0875L102.208 18.7589C103.142 19.7898 103.965 20.8441 104.667 21.9156L105.504 21.3675ZM99.9844 15.1977C98.9767 14.3223 97.8947 13.4727 96.7466 12.6528L96.1655 13.4666C97.2896 14.2694 98.3465 15.0994 99.3285 15.9526L99.9844 15.1977ZM93.3055 10.4018C92.1561 9.7119 90.9582 9.04923 89.7179 8.41672L89.2636 9.30757C90.4843 9.93007 91.662 10.5816 92.7909 11.2592L93.3055 10.4018ZM86.0112 6.6712C84.774 6.13413 83.5043 5.62609 82.2069 5.14952L81.8621 6.08819C83.1418 6.55827 84.3937 7.05921 85.613 7.5885L86.0112 6.6712ZM78.3218 3.84261C77.0244 3.44511 75.7057 3.07902 74.3702 2.74656L74.1286 3.71694C75.4469 4.04511 76.7484 4.40645 78.0289 4.79874L78.3218 3.84261ZM70.3653 1.86149C69.0274 1.60281 67.6774 1.37857 66.3195 1.19086L66.1826 2.18144C67.5225 2.36667 68.8549 2.58798 70.1754 2.84331L70.3653 1.86149ZM62.2454 0.741039C60.8828 0.628739 59.5164 0.554683 58.1503 0.520973L58.1256 1.52067C59.4721 1.55389 60.8193 1.6269 62.1632 1.73766L62.2454 0.741039ZM54.0467 0.543354C53.3635 0.568093 52.6814 0.603523 52.0009 0.649914L52.0689 1.6476C52.7386 1.60194 53.4101 1.56706 54.0829 1.5427L54.0467 0.543354Z" fill="white"/>
</svg>
