<svg width="51" height="61" viewBox="0 0 51 61" fill="none" xmlns="http://www.w3.org/2000/svg">
<path d="M0.623172 56.6714C0.441672 56.8795 0.463249 57.1953 0.671365 57.3768L4.06282 60.3345C4.27093 60.516 4.58678 60.4945 4.76828 60.2863C4.94978 60.0782 4.9282 59.7624 4.72009 59.5809L1.70546 56.9518L4.33454 53.9372C4.51604 53.7291 4.49446 53.4132 4.28635 53.2317C4.07823 53.0502 3.76238 53.0718 3.58088 53.2799L0.623172 56.6714ZM1.03408 57.4988C1.71367 57.4524 2.38488 57.4027 3.04778 57.3497L2.96815 56.3529C2.30913 56.4056 1.64175 56.455 0.965922 56.5012L1.03408 57.4988ZM6.92618 56.9936C8.26246 56.8543 9.56211 56.701 10.8259 56.5342L10.695 55.5428C9.4406 55.7083 8.15002 55.8606 6.8225 55.999L6.92618 56.9936ZM14.6383 55.973C15.9841 55.7534 17.285 55.5173 18.5421 55.2655L18.3457 54.285C17.1008 54.5344 15.8117 54.7683 14.4773 54.986L14.6383 55.973ZM22.3433 54.4249C23.645 54.1083 24.8937 53.773 26.0908 53.4203L25.8081 52.4611C24.6271 52.8091 23.3939 53.1402 22.1069 53.4533L22.3433 54.4249ZM29.8565 52.1941C31.145 51.7313 32.3632 51.2455 33.5135 50.7385L33.1101 49.8234C31.9825 50.3204 30.7861 50.7976 29.5185 51.253L29.8565 52.1941ZM37.0425 49.0037C38.2529 48.3398 39.3689 47.6478 40.3945 46.9308L39.8215 46.1112C38.8274 46.8062 37.7424 47.4793 36.5616 48.1269L37.0425 49.0037ZM43.4771 44.4588C44.4945 43.5169 45.3828 42.5426 46.1491 41.542L45.3551 40.934C44.6252 41.8871 43.7758 42.8195 42.7978 43.725L43.4771 44.4588ZM48.2471 38.1463C48.842 36.9102 49.2779 35.6492 49.5678 34.3741L48.5927 34.1524C48.3194 35.3547 47.9082 36.5445 47.3461 37.7126L48.2471 38.1463ZM50.0133 30.4065C50.0168 29.0815 49.8812 27.7556 49.622 26.4399L48.6408 26.6332C48.8882 27.8887 49.0166 29.149 49.0133 30.4038L50.0133 30.4065ZM48.5218 22.6204C48.0607 21.401 47.5017 20.2001 46.8578 19.0268L45.9811 19.5079C46.6041 20.643 47.143 21.8015 47.5865 22.9741L48.5218 22.6204ZM44.7424 15.6797C43.9816 14.6199 43.1543 13.5926 42.2714 12.6058L41.5262 13.2726C42.3862 14.2338 43.1909 15.2332 43.9301 16.2628L44.7424 15.6797ZM39.4961 9.80184C38.5253 8.91368 37.5101 8.0722 36.4606 7.28512L35.8606 8.08513C36.8842 8.85274 37.8743 9.67346 38.8211 10.5396L39.4961 9.80184ZM33.189 5.07628C32.0506 4.38865 30.8862 3.76626 29.7069 3.21769L29.2852 4.1244C30.4305 4.65718 31.5631 5.26249 32.6719 5.93225L33.189 5.07628ZM26.0276 1.76706C24.7442 1.35222 23.4555 1.03184 22.1752 0.817011L22.0097 1.80323C23.2382 2.00936 24.4794 2.31758 25.72 2.71858L26.0276 1.76706ZM18.2102 0.501987C17.5395 0.511445 16.8751 0.554761 16.2192 0.633748L16.3388 1.62657C16.9582 1.55198 17.5873 1.51087 18.2243 1.50189L18.2102 0.501987Z" fill="#1D1E1C"/>
</svg>
