<svg width="30" height="27" viewBox="0 0 30 27" fill="none" xmlns="http://www.w3.org/2000/svg">
<path fill-rule="evenodd" clip-rule="evenodd" d="M24 0C25.6545 0 27 1.3455 27 3V6C28.6545 6 30 7.3455 30 9V24C30 25.6545 28.6545 27 27 27H4.5C2.691 27 0 25.8015 0 22.5V4.5C0 2.019 2.019 0 4.5 0H24ZM24 3H4.5C4.11378 3.01728 3.74911 3.18286 3.48191 3.46227C3.21472 3.74169 3.0656 4.11339 3.0656 4.5C3.0656 4.88661 3.21472 5.25831 3.48191 5.53773C3.74911 5.81714 4.11378 5.98272 4.5 6H24V3ZM4.518 24H27V9H4.5C3.9705 9 3.471 8.892 3 8.7225V22.5C3 23.7075 3.825 23.982 4.518 24ZM24 13.5H21V19.5H24V13.5Z" fill="#FF8C21"/>
</svg>
